<?xml version="1.0" standalone="no"?>
<!DOCTYPE svg PUBLIC "-//W3C//DTD SVG 20010904//EN"
 "http://www.w3.org/TR/2001/REC-SVG-20010904/DTD/svg10.dtd">
<svg version="1.0" xmlns="http://www.w3.org/2000/svg"
 width="3435.000000pt" height="2309.000000pt" viewBox="0 0 3435.000000 2309.000000"
 preserveAspectRatio="xMidYMid meet">
<metadata>
Created by potrace 1.16, written by Peter Selinger 2001-2019
</metadata>
<g transform="translate(0.000000,2309.000000) scale(0.100000,-0.100000)"
fill="#000000" stroke="none">
<path d="M17647 22533 c-3 -5 -8 -240 -11 -523 -7 -509 -17 -785 -36 -950 -14
-124 -31 -211 -45 -240 -15 -28 -89 -70 -125 -70 -34 0 -82 -41 -121 -102 -18
-29 -46 -70 -62 -91 -23 -30 -27 -40 -17 -52 6 -7 19 -13 28 -13 9 0 58 -7
107 -17 145 -28 148 -28 142 -18 -3 5 -1 26 5 46 8 26 17 37 31 37 16 0 19 -6
15 -35 -4 -32 -2 -35 22 -35 50 0 100 -13 100 -26 0 -7 8 -15 18 -17 16 -4
-45 -10 -148 -13 -25 0 -54 -4 -65 -7 -11 -3 -141 -9 -290 -12 -148 -4 -272
-9 -274 -11 -2 -2 166 -4 375 -5 339 -1 372 -2 309 -14 -47 -8 -74 -9 -82 -2
-9 6 -13 6 -13 -1 0 -20 38 -34 60 -22 26 14 38 -10 22 -44 -5 -12 -6 -29 -2
-37 4 -8 10 -107 14 -221 l7 -207 -24 -6 c-14 -4 -38 -6 -53 -4 -57 4 -1167
-1 -1162 -6 2 -3 289 -5 636 -5 402 0 632 -4 632 -10 0 -6 8 -10 18 -10 13 0
14 2 4 9 -9 5 -3 8 17 7 17 -1 31 -4 31 -8 0 -5 5 -8 11 -8 5 0 7 4 4 10 -3 5
13 9 40 8 25 0 45 -4 45 -9 0 -5 12 -9 28 -9 21 0 24 2 12 10 -10 7 7 10 57
10 60 0 71 -3 67 -15 -5 -12 4 -15 47 -17 l54 -1 -45 -7 c-38 -6 -33 -7 35 -8
57 0 74 2 60 9 -16 7 -12 8 14 4 18 -3 48 -6 65 -6 23 -1 18 -4 -19 -10 -27
-4 -205 -10 -395 -13 -190 -3 -493 -8 -675 -11 -181 -3 -476 -7 -655 -10 -345
-5 -660 -12 -930 -20 -413 -12 -795 -25 -905 -30 -199 -9 -524 -25 -620 -30
-49 -3 -173 -10 -275 -15 -324 -17 -1056 -69 -1195 -85 -48 -5 -121 -13 -190
-20 -97 -9 -410 -45 -435 -50 -14 -2 -47 -7 -75 -10 -299 -36 -735 -114 -975
-175 -247 -63 -376 -116 -477 -198 -43 -34 -56 -56 -28 -46 17 7 19 1 6 -24
-24 -46 -71 -154 -71 -165 -1 -25 -47 -117 -55 -110 -4 5 -6 1 -3 -7 3 -8 -14
-54 -38 -101 -24 -48 -44 -91 -44 -96 0 -5 -6 -15 -12 -21 -7 -7 -13 -18 -14
-25 0 -7 -2 -20 -2 -30 -1 -11 -7 -15 -13 -11 -8 4 -9 -1 -4 -16 5 -14 3 -20
-3 -16 -6 4 -8 -2 -5 -14 3 -11 0 -20 -6 -20 -6 0 -11 -9 -11 -19 0 -11 -5
-23 -11 -26 -6 -4 -8 -14 -5 -22 3 -8 2 -12 -3 -9 -9 6 -21 -15 -27 -44 -2 -8
-8 -16 -13 -18 -6 -2 -13 -19 -17 -38 -3 -19 -10 -34 -15 -34 -5 0 -9 -11 -9
-25 0 -14 -4 -25 -10 -25 -5 0 -10 -4 -10 -10 0 -5 -13 -38 -29 -72 -86 -185
-111 -241 -111 -250 0 -5 -4 -7 -8 -4 -4 2 -9 -4 -9 -16 -1 -11 -23 -60 -48
-110 -26 -49 -44 -95 -41 -103 2 -7 -1 -16 -8 -18 -7 -3 -16 -20 -21 -39 -4
-18 -9 -28 -11 -22 -6 14 22 128 72 299 30 100 64 176 207 455 164 320 367
749 367 774 -1 14 -32 -22 -127 -149 -41 -55 -79 -101 -84 -103 -17 -7 -9 22
26 86 20 35 34 67 31 69 -13 13 -227 -448 -328 -707 -140 -357 -184 -503 -353
-1180 -191 -764 -223 -840 -521 -1242 -68 -91 -156 -217 -195 -279 -60 -93
-170 -308 -217 -422 -7 -15 -19 -30 -28 -34 -8 -3 -154 17 -322 46 -423 70
-501 81 -623 81 -94 0 -110 -3 -140 -23 -19 -12 -36 -31 -38 -42 -3 -16 1 -15
28 8 40 33 83 41 179 33 80 -7 444 -65 451 -72 7 -7 -21 -4 -114 11 -49 9
-115 18 -145 21 -30 3 -61 7 -69 10 -7 2 -57 1 -110 -3 -53 -4 -89 -8 -81 -10
88 -14 398 -72 565 -104 158 -31 225 -48 270 -71 33 -16 61 -31 62 -32 1 -1
-9 -15 -22 -30 -21 -24 -27 -27 -40 -16 -9 8 -15 8 -15 2 0 -6 5 -14 10 -17
17 -10 11 -24 -10 -22 -10 1 -17 3 -15 5 8 9 -17 43 -28 39 -7 -2 -20 0 -29 5
-12 5 -18 5 -18 -1 0 -6 11 -13 24 -17 27 -6 38 -24 27 -43 -5 -8 -14 -5 -32
9 -13 12 -25 17 -27 11 -2 -6 -7 -9 -12 -6 -5 3 -22 7 -38 9 -22 2 -29 0 -25
-10 3 -8 0 -14 -6 -14 -6 0 -11 7 -11 15 0 8 -9 15 -20 15 -13 0 -18 -5 -14
-15 4 -8 2 -15 -4 -15 -5 0 -13 7 -16 16 -5 13 -9 14 -20 4 -12 -9 -17 -7 -26
10 -6 12 -14 19 -17 17 -2 -3 1 -15 7 -27 11 -21 11 -21 -21 -5 -26 14 -33 14
-40 4 -4 -8 -25 -14 -46 -14 -27 0 -37 -4 -35 -14 2 -11 0 -12 -11 -3 -8 7
-17 9 -20 5 -4 -3 -14 0 -23 7 -13 11 -17 11 -24 1 -5 -9 -10 -10 -14 -3 -4 6
-14 8 -22 5 -9 -3 -20 0 -25 8 -7 10 -11 11 -17 2 -5 -8 -22 -9 -57 -3 -127
21 -307 42 -312 36 -4 -3 -1 -6 6 -6 7 0 9 -4 6 -10 -3 -5 0 -10 9 -10 8 0 16
5 18 11 5 14 42 -2 46 -20 2 -9 -3 -11 -15 -7 -47 19 -344 26 -364 9 -8 -7
-35 -13 -61 -15 -32 -2 -44 -7 -41 -16 4 -8 0 -10 -11 -6 -9 3 -16 1 -16 -5 0
-6 -6 -10 -12 -9 -7 2 -14 -6 -14 -17 -1 -11 -2 -27 -3 -35 -1 -8 -19 -23 -40
-34 -63 -30 -49 -47 70 -82 175 -53 587 -131 1074 -204 115 -17 212 -34 214
-36 8 -8 0 -98 -9 -107 -15 -16 -964 131 -1119 173 -65 17 -252 60 -265 60 -8
0 -12 -10 -11 -25 2 -14 -2 -25 -9 -25 -7 0 -10 -13 -8 -39 2 -21 -1 -42 -7
-45 -6 -4 -11 -18 -11 -32 0 -13 -4 -24 -8 -24 -5 0 -14 -36 -21 -80 -8 -44
-17 -80 -21 -80 -3 0 -7 -19 -8 -42 -1 -26 -8 -48 -17 -54 -10 -8 -14 -20 -10
-36 4 -15 0 -30 -12 -43 -20 -22 -31 -61 -14 -51 6 4 7 -4 1 -26 -6 -17 -14
-34 -19 -37 -14 -10 -33 -156 -38 -303 -4 -106 -1 -148 11 -191 9 -30 16 -63
16 -72 0 -15 -2 -16 -17 -4 -11 8 -10 4 4 -11 12 -14 33 -52 48 -85 15 -33 31
-68 37 -79 7 -14 6 -21 -4 -27 -10 -7 -8 -14 12 -29 35 -29 145 -84 208 -105
85 -28 54 -27 -39 1 -119 36 -184 70 -226 118 -30 35 -33 37 -20 11 8 -16 28
-42 44 -57 101 -96 469 -199 1062 -299 62 -10 121 -24 129 -31 12 -10 14 -10
8 0 -5 8 0 12 16 12 19 0 20 -2 8 -11 -12 -8 -8 -9 15 -6 16 3 55 1 85 -5 30
-5 69 -11 85 -12 144 -13 196 -20 202 -29 3 -5 16 -64 29 -131 12 -67 26 -136
30 -153 l6 -33 -48 6 c-115 13 -405 55 -474 69 -41 7 -113 21 -160 29 -224 42
-329 63 -490 103 -131 32 -180 40 -180 32 0 -5 -7 -9 -16 -9 -10 0 -14 -6 -11
-14 7 -18 -12 -36 -39 -36 -36 0 -39 -42 -8 -111 15 -32 33 -59 41 -59 7 0 16
-14 20 -30 3 -17 10 -33 15 -36 5 -3 6 -21 2 -40 -4 -22 -2 -34 5 -34 6 0 11
-6 11 -14 0 -8 8 -21 19 -28 16 -12 31 -41 37 -76 4 -24 14 -26 28 -7 13 18
15 17 24 -17 5 -20 26 -53 46 -73 20 -19 36 -42 36 -50 0 -8 5 -14 12 -12 6 1
21 -12 32 -30 15 -24 29 -32 50 -33 25 0 28 -3 23 -26 -4 -21 0 -26 24 -31 22
-4 29 -11 29 -29 0 -13 5 -24 10 -24 6 0 10 7 10 15 0 13 2 14 14 3 12 -11 12
-15 -1 -30 -15 -17 -14 -18 9 -18 39 0 118 -31 118 -46 0 -10 14 -14 53 -14
30 0 76 -7 103 -15 27 -8 60 -15 74 -15 14 0 38 -7 54 -15 15 -8 48 -15 72
-15 33 0 44 -4 44 -15 0 -12 4 -13 19 -5 27 14 50 13 67 -5 9 -8 27 -15 42
-16 15 -1 45 -3 67 -5 26 -2 66 6 115 23 78 27 125 32 143 14 6 -6 44 -11 83
-11 40 0 76 -4 79 -10 9 -14 21 -12 39 6 9 8 21 12 27 8 8 -4 7 -9 -2 -15 -10
-6 -4 -9 17 -9 17 0 42 -9 56 -20 l25 -19 -5 25 c-3 19 -9 23 -23 19 -11 -4
-19 -2 -19 5 0 6 5 8 10 5 17 -10 11 5 -21 62 -17 30 -28 57 -25 60 3 4 6 2 6
-4 0 -17 148 -233 215 -312 159 -189 300 -291 515 -369 122 -45 195 -61 430
-92 288 -40 2475 -102 4365 -125 231 -3 535 -7 675 -10 140 -3 494 -8 785 -11
705 -7 873 -11 918 -19 23 -5 37 -3 37 3 0 10 134 7 151 -3 4 -3 9 -1 11 4 1
6 22 7 46 4 29 -4 42 -10 42 -22 1 -14 2 -14 14 2 16 21 26 22 26 3 0 -7 9
-16 20 -19 22 -6 29 18 8 26 -7 3 -3 6 9 6 12 1 25 -4 28 -9 3 -6 13 -10 21
-10 8 0 13 4 10 9 -3 5 17 9 44 8 33 0 50 -4 50 -13 0 -15 22 -24 46 -19 11 2
24 4 31 4 7 1 10 8 7 16 -4 8 -2 15 4 15 6 0 12 -5 14 -12 3 -7 25 -13 50 -14
25 -1 55 -7 66 -13 17 -9 22 -9 22 0 0 8 20 10 73 4 39 -4 88 -7 108 -6 20 1
55 -3 78 -8 29 -6 41 -6 41 2 0 7 4 7 12 -1 17 -17 26 -15 33 9 6 19 8 20 26
3 12 -11 34 -16 64 -16 25 1 45 -3 45 -8 0 -6 -19 -11 -42 -12 l-43 -1 50 -6
c52 -6 72 4 53 26 -8 10 -5 13 15 13 16 0 26 -7 30 -20 3 -11 1 -20 -4 -20 -5
0 -9 -7 -9 -15 0 -20 18 -19 22 1 5 25 85 26 92 2 6 -24 26 -23 26 1 0 11 5
23 10 26 6 3 10 -3 10 -14 0 -12 5 -21 10 -21 6 0 10 5 10 10 0 14 33 13 48
-2 7 -7 16 -8 24 -2 7 5 29 9 48 9 32 0 35 -2 32 -27 -1 -16 2 -28 8 -28 5 0
10 5 10 10 0 6 18 10 40 10 35 0 40 -3 41 -22 1 -18 3 -16 12 10 9 29 13 33
36 27 36 -9 37 -12 16 -35 -11 -12 -13 -20 -6 -20 7 0 9 -4 6 -10 -3 -5 -1
-10 4 -10 6 0 11 10 11 23 0 22 3 23 58 20 31 -2 69 -5 84 -7 16 -1 25 2 22 8
-3 6 1 3 10 -8 8 -10 22 -16 30 -13 9 4 20 -1 25 -11 10 -16 10 -16 11 0 0 20
32 32 59 23 13 -4 18 -12 15 -23 -4 -13 -3 -14 4 -4 6 9 18 11 37 6 20 -5 31
-3 39 8 6 8 22 18 36 22 l25 7 -26 -23 c-23 -20 -24 -26 -13 -47 14 -28 32
-41 57 -41 16 0 16 2 2 30 -19 36 -14 37 28 6 43 -32 75 -41 93 -25 12 10 15
10 12 -2 -2 -8 4 -14 12 -14 8 0 16 10 18 21 2 15 12 23 31 26 38 6 51 0 51
-24 0 -17 5 -20 30 -14 22 4 30 2 30 -9 0 -18 16 -20 24 -2 2 6 4 1 3 -13 -2
-19 3 -25 18 -26 47 -2 48 -3 35 -19 -9 -11 -10 -18 -1 -28 6 -8 7 -18 3 -23
-4 -5 3 0 16 11 13 11 19 21 13 23 -12 4 -15 32 -3 32 4 -1 18 -7 32 -15 34
-19 40 -18 40 5 0 18 2 19 20 8 11 -7 20 -16 20 -20 0 -5 -9 -8 -20 -8 -11 0
-20 -7 -20 -15 0 -18 41 -29 75 -21 19 5 28 1 41 -19 9 -14 23 -24 30 -21 7 3
15 0 18 -7 2 -7 2 3 -1 21 -4 25 -2 32 11 32 9 0 16 -8 16 -18 0 -9 10 -22 23
-27 27 -12 28 -24 5 -39 -13 -8 -23 -8 -38 1 -22 14 -33 3 -24 -22 4 -9 1 -20
-6 -25 -8 -5 -9 -9 -1 -14 6 -4 11 -3 11 3 0 15 36 32 54 25 9 -3 13 -10 10
-15 -8 -14 6 -11 21 5 8 7 11 16 8 20 -4 3 -1 6 5 6 6 0 26 -14 43 -31 29 -28
33 -29 47 -15 11 11 12 16 4 16 -7 0 -12 7 -12 15 0 8 -9 15 -20 15 -15 0 -19
6 -18 28 3 45 48 85 48 42 0 -13 -7 -20 -20 -20 -19 0 -17 -4 13 -35 34 -35
34 -37 28 -127 -1 -5 -17 -8 -37 -8 -24 0 -34 -4 -31 -12 3 -9 23 -12 66 -10
33 2 61 0 61 -5 0 -5 -22 -9 -49 -9 -32 0 -54 -6 -65 -16 -15 -16 -14 -18 6
-32 17 -12 20 -18 10 -28 -19 -19 -14 -36 13 -41 24 -4 23 -4 -2 -3 -23 1 -28
7 -34 34 -4 19 -12 39 -18 45 -6 6 -11 19 -11 29 0 26 -12 22 -35 -12 -19 -29
-45 -40 -45 -20 0 6 -7 10 -15 10 -24 0 -17 -36 10 -54 48 -32 32 -46 -52 -48
-70 -1 -73 -2 -28 -7 68 -8 30 -17 -69 -16 -43 1 -74 -1 -67 -3 33 -11 1 -19
-84 -20 -76 -1 -97 2 -102 13 -7 20 -29 19 -37 -1 -4 -11 -13 -14 -30 -10 -14
3 -28 1 -31 -5 -5 -7 -905 -9 -3124 -5 -1714 4 -3204 8 -3311 11 -107 2 -501
6 -875 9 -374 3 -781 8 -905 11 -124 3 -477 10 -785 15 -933 17 -1847 48
-2242 76 -74 5 -82 8 -85 27 -3 21 -15 25 -48 15 -8 -3 -12 -3 -7 -1 17 10 5
22 -25 23 -18 0 -41 1 -50 1 -10 0 -21 5 -24 11 -4 6 -2 8 4 4 6 -3 13 -2 17
4 4 6 -5 10 -19 10 -23 0 -30 8 -28 30 0 3 -15 4 -34 2 -39 -5 -47 -22 -10
-22 14 0 28 -4 31 -10 3 -6 -5 -10 -19 -10 -14 0 -28 5 -31 10 -3 5 -16 10
-28 11 -21 0 -21 1 -2 8 13 5 1 8 -37 8 -34 0 -55 -4 -52 -9 4 -6 -3 -5 -15 1
-12 7 -38 10 -59 7 -20 -3 -63 -8 -95 -12 -40 -4 -55 -10 -48 -17 7 -7 19 -6
39 2 16 7 45 11 63 8 31 -3 30 -4 -8 -5 -24 -1 -43 -6 -43 -12 0 -5 -16 -10
-35 -10 -20 0 -50 -6 -68 -14 -28 -11 -58 -11 -190 0 -141 11 -249 17 -285 15
-7 -1 -11 -5 -8 -10 3 -5 -6 -12 -21 -16 -19 -4 -23 -9 -14 -14 11 -7 11 -9 0
-13 -20 -7 -72 14 -87 35 -21 27 -57 18 -56 -13 1 -24 -11 -222 -23 -390 -9
-108 -8 -188 1 -221 6 -19 3 -31 -10 -43 -21 -21 -26 -54 -25 -170 0 -61 -4
-92 -13 -102 -8 -7 -17 -48 -21 -91 -4 -43 -13 -91 -20 -108 -8 -16 -18 -66
-23 -110 -12 -97 -44 -209 -57 -198 -5 4 -3 0 4 -9 9 -12 10 -18 2 -18 -6 0
-11 -5 -11 -10 0 -6 -9 -30 -21 -55 -11 -24 -18 -49 -14 -55 4 -6 2 -17 -4
-24 -7 -8 -12 -30 -13 -50 -1 -21 -6 -36 -14 -36 -6 0 -15 -17 -20 -37 -7 -37
-9 -45 -14 -60 -1 -5 -10 17 -20 47 -14 42 -18 49 -19 28 -1 -16 -5 -28 -11
-28 -5 0 -10 -4 -10 -10 0 -5 5 -9 12 -7 6 1 14 -6 16 -15 2 -10 -1 -18 -7
-18 -6 0 -11 5 -11 12 0 6 -6 3 -14 -7 -8 -11 -12 -23 -9 -28 2 -4 -9 -29 -26
-56 -17 -26 -31 -53 -31 -58 0 -6 -7 -14 -16 -17 -9 -3 -14 -12 -11 -20 3 -8
-8 -28 -25 -44 -28 -30 -31 -52 -4 -52 25 0 34 -20 22 -53 -6 -18 -15 -35 -20
-38 -5 -4 -5 -12 -2 -18 4 -6 2 -11 -3 -11 -6 0 -10 -3 -10 -7 4 -27 -3 -62
-16 -79 -15 -18 -16 -17 -10 16 l5 35 -14 -35 c-7 -20 -12 -56 -10 -80 2 -25
6 -88 8 -140 7 -133 23 -286 50 -490 16 -117 21 -177 14 -181 -7 -4 -6 -8 2
-11 13 -4 52 -201 45 -233 -15 -75 -34 -896 -27 -1192 4 -180 3 -191 -14 -196
-15 -4 -15 -5 -3 -6 19 -1 23 -30 39 -276 6 -93 18 -241 27 -328 14 -136 14
-160 2 -168 -11 -7 -11 -9 3 -9 13 0 18 -14 23 -67 18 -181 79 -509 136 -736
60 -238 120 -411 199 -572 100 -204 128 -249 203 -327 28 -30 36 -45 31 -60
-5 -16 -3 -20 9 -15 10 4 28 -6 48 -24 17 -16 40 -29 50 -29 13 0 19 -7 19
-21 0 -17 3 -19 13 -10 8 6 17 8 20 5 4 -4 57 -21 119 -38 l113 -32 6 -69 c7
-91 75 -225 113 -225 5 0 22 -12 37 -26 26 -25 121 -65 200 -85 20 -4 114 -20
209 -34 183 -28 251 -30 770 -28 135 1 292 0 350 -1 58 0 166 1 240 2 74 2
266 1 425 -2 l290 -7 28 -32 c69 -77 126 -134 163 -161 21 -16 49 -40 62 -52
29 -28 129 -76 202 -97 87 -26 216 -62 335 -95 156 -44 509 -127 645 -152 63
-12 142 -27 175 -35 33 -7 80 -16 105 -20 25 -3 63 -10 85 -15 22 -5 74 -16
115 -25 70 -16 166 -41 200 -53 15 -5 63 -20 205 -61 74 -22 262 -69 380 -95
84 -18 251 -45 355 -57 304 -33 531 -53 800 -69 107 -7 197 -14 201 -16 8 -5
361 -19 474 -19 55 0 219 6 365 13 355 17 644 4 835 -38 177 -39 263 -48 520
-54 143 -4 305 -9 360 -11 192 -9 1161 -29 2035 -42 1056 -16 4534 -8 5105 12
61 2 277 6 480 10 204 3 406 8 450 10 44 2 168 7 275 10 578 16 905 27 1160
40 52 3 151 7 220 10 272 11 375 16 610 30 461 27 585 35 695 45 61 5 175 14
255 20 294 22 490 49 620 87 82 23 254 88 275 103 13 9 184 56 255 69 30 6
114 22 185 36 119 23 163 33 281 64 23 6 54 11 70 11 22 0 26 3 14 10 -11 7
-8 10 16 10 17 0 37 6 43 14 9 11 6 15 -16 21 l-28 7 28 14 c15 8 27 17 27 20
0 3 -4 2 -10 -1 -14 -9 -12 17 5 58 8 20 12 43 9 51 -4 11 4 16 33 21 68 12
73 15 73 45 0 15 -6 30 -14 33 -15 6 -29 47 -15 47 4 0 17 -10 29 -22 17 -18
20 -19 20 -5 0 9 -4 17 -10 17 -18 0 -11 28 14 54 13 15 31 26 40 26 9 0 16 6
16 13 0 8 8 21 18 30 13 12 17 29 15 74 -1 32 -2 60 -3 63 -1 3 -2 8 -1 12 0
4 -6 5 -14 2 -11 -5 -15 1 -15 21 0 25 2 26 43 22 23 -2 33 -2 22 0 -11 2 -31
13 -45 23 l-25 20 25 20 c14 11 33 20 43 20 19 0 20 2 18 91 -2 60 0 66 21 76
22 10 22 10 -9 17 -32 7 -46 26 -19 26 7 0 24 8 37 19 13 10 30 16 37 14 17
-7 15 22 -4 38 -10 8 -13 21 -9 36 3 13 1 23 -5 23 -19 0 -10 28 10 33 11 3
20 1 20 -4 0 -5 18 -9 40 -9 l40 0 0 60 c0 53 -2 60 -20 60 -19 0 -20 7 -20
129 0 120 -1 129 -20 134 -18 4 -20 0 -20 -35 0 -35 -2 -39 -15 -28 -8 7 -15
26 -15 42 0 23 8 33 38 51 l37 22 -38 5 c-21 3 -37 10 -36 15 1 6 -10 16 -25
23 -19 10 -26 21 -26 42 0 22 -6 30 -27 38 l-28 9 30 16 c25 14 27 16 9 17
-11 0 -26 11 -34 25 -7 13 -17 22 -22 19 -4 -3 -8 14 -8 36 l0 42 -42 -3 -43
-4 4 49 3 48 -41 -4 c-37 -3 -41 -1 -41 18 0 17 5 21 20 17 17 -5 20 0 20 32
0 48 -17 63 -76 67 -45 3 -49 5 -49 28 0 18 6 26 23 28 12 2 22 6 22 8 0 11
-28 33 -34 27 -3 -4 -6 -2 -6 4 0 6 -20 13 -45 15 l-45 3 5 -35 c3 -19 2 -29
-1 -22 -3 6 -11 9 -17 5 -6 -4 -8 0 -4 10 3 9 12 43 19 77 6 33 15 60 18 60 3
0 6 8 6 18 2 43 29 148 41 158 8 7 10 13 4 15 -7 3 -7 18 -1 44 5 22 11 58 14
80 3 22 14 91 26 153 11 62 22 134 25 160 12 126 17 153 31 148 8 -3 14 1 14
9 0 8 -4 15 -10 15 -13 0 -12 53 4 175 8 55 12 104 9 108 -10 16 8 57 25 57
15 1 15 2 -2 11 -16 10 -17 20 -11 113 13 164 13 169 14 229 1 50 3 57 21 57
11 0 20 5 20 10 0 6 -10 10 -21 10 -21 0 -21 2 -14 118 5 64 8 237 7 384 l-2
267 22 4 23 4 -22 2 c-20 1 -23 7 -23 41 0 39 1 40 35 40 19 0 35 5 35 10 0 6
-15 10 -34 10 l-33 0 -7 61 c-3 34 -6 113 -6 175 0 99 2 113 18 117 15 4 14 6
-4 12 -19 6 -22 15 -25 93 -9 213 -3 265 33 277 l23 8 -22 4 c-13 2 -23 9 -23
14 0 5 10 10 23 10 17 1 18 2 4 6 -19 5 -19 37 4 173 33 205 68 702 76 1083 5
278 4 328 -8 325 -9 -2 -17 13 -24 47 -5 28 -14 56 -18 63 -5 7 -6 30 -3 50 4
27 3 31 -4 17 -6 -15 -9 -16 -9 -4 -1 8 -12 38 -26 65 -14 27 -25 57 -25 67 0
9 -8 17 -17 17 -15 0 -16 2 -3 10 13 8 12 10 -2 10 -12 0 -18 8 -18 23 0 13
-3 27 -7 31 -5 4 -8 11 -9 14 -8 50 -19 72 -34 72 -10 0 -24 14 -34 34 -8 18
-22 39 -31 46 -8 7 -15 21 -15 32 0 10 -6 29 -14 41 -8 12 -17 50 -21 85 -4
34 -13 69 -21 77 -8 7 -14 20 -14 27 0 8 -7 41 -16 73 -9 33 -17 74 -19 90 -2
17 -11 62 -20 100 -28 117 -42 252 -49 465 -3 75 -1 89 20 119 14 20 20 39 15
45 -5 6 -11 47 -15 91 -9 120 -15 189 -28 310 -6 61 -12 121 -13 135 -1 14 -6
61 -11 105 -8 77 -9 74 -15 -100 -7 -168 -27 -313 -48 -339 -5 -6 -11 -22 -14
-36 l-4 -25 -2 25 c0 15 3 30 9 36 6 6 2 37 -11 84 -36 129 -39 150 -33 175 4
16 2 25 -6 25 -8 0 -9 10 -5 30 5 25 3 30 -12 30 -26 0 -45 63 -31 103 8 20 7
31 0 36 -6 3 -14 19 -17 34 -4 15 -12 27 -17 27 -6 0 -8 14 -4 35 4 21 2 44
-5 57 -7 13 -14 30 -15 38 -1 8 -6 40 -10 70 -4 30 -12 58 -17 62 -14 9 -19
165 -6 174 6 3 3 11 -8 20 -17 13 -17 15 2 32 15 12 19 27 17 55 -2 20 -7 37
-11 37 -10 0 -7 83 4 100 4 7 2 16 -6 21 -10 6 -11 9 -1 9 6 0 12 7 12 15 0 8
-4 15 -9 15 -5 0 -12 37 -15 83 -12 182 -31 312 -70 485 -9 40 -16 86 -16 102
0 16 -4 31 -9 34 -5 3 -12 32 -16 63 -6 54 -33 163 -39 163 -2 0 -20 -7 -39
-15 -47 -20 -48 -19 -37 10 8 22 7 25 -13 25 -12 0 -17 4 -12 8 27 20 36 41
26 61 -8 14 -8 21 2 24 9 3 9 7 0 17 -9 9 -9 19 -2 32 7 14 7 23 -1 33 -9 11
-2 19 39 39 103 52 151 114 169 217 11 61 8 71 -13 43 -14 -18 -14 -18 -15 9
0 15 8 42 18 60 15 28 17 61 17 257 -1 233 -19 399 -76 685 -17 87 -69 306
-73 312 -1 1 -21 -7 -43 -18 -57 -28 -246 -79 -398 -109 -363 -69 -1010 -169
-1020 -158 -2 2 -5 28 -6 58 l-4 55 50 7 c566 86 824 130 1067 184 174 38 318
81 318 95 0 16 -33 105 -57 155 -30 63 -68 92 -121 96 -22 2 -38 6 -36 10 6
10 -92 21 -117 13 -13 -4 -19 -3 -16 3 4 5 -31 15 -84 22 -49 7 -92 17 -95 21
-3 5 -14 9 -25 9 -11 0 -18 4 -14 9 8 14 -28 31 -53 24 -16 -4 -22 -1 -22 11
0 9 -4 16 -10 16 -5 0 -10 -5 -10 -11 0 -6 -7 -3 -16 5 -8 9 -20 14 -25 10 -5
-3 -24 -1 -42 5 -17 6 -60 12 -94 13 -35 1 -57 5 -50 9 11 6 185 35 247 42
l25 2 -30 17 c-17 10 -23 17 -14 18 8 0 30 -11 49 -25 38 -28 47 -27 31 4 -25
45 -66 56 -206 55 -132 -2 -231 -16 -694 -99 -107 -19 -204 -32 -215 -29 -12
3 -29 23 -40 47 -128 281 -207 411 -446 737 -253 344 -296 453 -509 1305 -142
569 -202 767 -333 1095 -86 217 -308 690 -323 690 -3 0 11 -31 30 -70 38 -76
44 -100 20 -80 -8 7 -15 9 -15 5 0 -4 32 -78 70 -163 39 -85 69 -156 67 -158
-5 -5 -117 222 -117 236 0 6 -4 8 -10 5 -5 -3 -7 0 -4 8 3 8 -1 21 -9 28 -7 8
-26 39 -43 69 -16 30 -31 57 -34 60 -3 3 -11 19 -18 35 l-13 30 26 -30 c14
-16 33 -42 42 -57 10 -16 21 -28 26 -28 11 0 -105 167 -157 227 -48 54 -161
131 -237 160 -80 31 -94 36 -99 37 -3 1 -10 4 -15 8 -13 8 -331 90 -442 113
-45 10 -80 21 -78 25 3 5 -2 10 -10 14 -8 3 -15 1 -15 -4 0 -6 -11 -10 -25
-10 -16 0 -25 6 -25 15 0 9 -9 15 -25 15 -14 0 -25 4 -25 9 0 12 26 21 58 20
23 -1 22 -3 -8 -9 l-35 -7 43 -2 c32 -1 42 3 42 15 0 14 -11 16 -71 12 -58 -3
-67 -2 -53 9 15 11 13 12 -17 11 -19 0 -45 4 -57 11 -12 6 -46 13 -75 15 -28
2 -59 6 -67 10 -27 10 -420 65 -622 86 -54 5 -140 14 -190 20 -335 35 -1061
90 -1448 110 -107 5 -231 12 -275 15 -91 6 -712 31 -975 40 -96 3 -247 8 -335
10 -319 11 -1202 24 -1705 27 l-516 3 4 55 c13 209 18 397 10 406 -14 19 2 42
32 49 16 3 35 14 42 23 7 9 9 13 3 10 -5 -3 -44 -2 -85 3 -41 4 184 6 500 3
1980 -14 3958 -162 5165 -385 334 -61 368 -70 403 -103 19 -17 40 -44 48 -59
8 -15 19 -25 24 -22 20 13 9 49 -26 82 -35 33 -36 35 -19 53 10 11 13 20 8 20
-6 0 -16 -7 -23 -15 -11 -13 -17 -11 -47 15 -18 17 -37 30 -41 30 -4 -1 7 -12
23 -25 17 -14 27 -25 24 -25 -3 0 -71 13 -151 29 -1098 223 -2971 385 -4793
416 -181 3 -413 8 -515 10 -102 2 -251 5 -332 5 -92 0 -148 4 -148 10 0 6 7
10 15 10 8 0 12 6 9 14 -8 21 21 32 99 40 37 4 82 9 99 13 25 5 30 3 23 -8 -4
-8 3 -3 16 11 13 13 23 27 22 31 -5 15 -123 187 -135 196 -7 5 -37 15 -67 22
-92 20 -139 68 -160 162 -27 122 -50 706 -51 1324 -1 188 -5 294 -12 302 -11
14 -54 18 -61 6z m-7056 -4410 c11 -15 11 -16 -1 -5 -20 17 -35 15 -20 -3 7
-9 10 -18 7 -22 -4 -3 -9 1 -13 10 -4 13 -12 9 -36 -18 l-30 -35 24 -32 c19
-27 23 -47 25 -110 2 -62 -1 -78 -13 -78 -14 0 -19 -22 -15 -71 1 -18 -5 -29
-23 -39 -14 -7 -22 -18 -18 -24 10 -16 9 -30 -2 -38 -6 -4 -10 -30 -8 -57 1
-40 -2 -51 -14 -51 -10 0 -14 -7 -12 -22 2 -13 -4 -31 -14 -42 -9 -10 -14 -24
-11 -32 3 -8 -2 -31 -10 -52 -8 -20 -18 -62 -22 -92 -4 -30 -12 -64 -19 -75
-7 -11 -18 -53 -25 -92 -7 -40 -17 -73 -22 -73 -5 0 -9 -15 -9 -33 0 -17 -5
-48 -11 -67 -6 -19 -10 -52 -10 -72 0 -20 -4 -40 -9 -43 -6 -3 -10 3 -10 15 0
12 -4 18 -10 15 -5 -3 -10 -21 -10 -40 0 -35 -18 -85 -34 -97 -5 -3 -42 -4
-83 -1 -52 3 -73 1 -73 -7 0 -7 -7 -10 -15 -6 -20 7 -20 -28 1 -48 8 -9 70
-48 137 -88 115 -67 173 -106 117 -78 -102 52 -240 136 -262 160 l-28 28 20
94 c37 173 129 472 248 808 32 91 124 302 149 342 13 21 23 40 23 43 0 16 107
145 120 145 4 0 14 -8 21 -17z m-1028 -1232 c95 -90 252 -203 437 -315 25 -15
72 -44 105 -64 33 -21 103 -59 155 -86 52 -27 100 -52 105 -56 6 -4 84 -41
175 -83 459 -212 982 -397 1555 -551 628 -169 1015 -224 1880 -266 116 -5 255
-13 310 -16 55 -4 152 -7 215 -7 80 0 104 -2 80 -8 -21 -5 1 -6 58 -3 50 3 92
2 92 -3 0 -12 53 -10 63 2 4 6 12 3 21 -7 14 -20 96 -26 96 -8 0 6 27 10 61
10 55 0 61 -2 57 -18 -3 -10 0 -19 6 -20 62 -5 122 -15 136 -22 13 -7 20 -6
24 6 7 18 36 15 52 -5 10 -13 15 -12 40 4 19 12 29 14 32 7 3 -9 9 -9 24 -1
24 13 30 8 32 -24 l1 -24 35 20 c22 12 36 15 38 8 2 -6 8 -11 13 -11 6 0 8 4
5 9 -3 5 6 9 20 9 22 0 25 -4 19 -27 -3 -14 -2 -21 3 -14 4 7 21 11 37 9 17
-2 33 1 36 6 3 5 25 6 48 2 40 -6 42 -8 35 -37 -4 -20 -3 -27 5 -23 6 4 11 3
11 -1 0 -5 9 -9 20 -10 26 -2 25 5 -2 36 -13 14 -19 23 -14 19 5 -4 23 -1 41
6 30 13 32 12 28 -3 -4 -15 6 -20 55 -31 33 -7 78 -10 99 -6 54 9 75 8 82 -2
8 -13 81 -20 81 -8 0 6 6 4 12 -2 10 -10 10 -15 -2 -22 -13 -9 -13 -11 0 -20
21 -13 27 -12 34 5 3 8 13 15 22 15 10 0 14 -5 11 -15 -4 -8 -2 -17 2 -20 5
-2 12 5 15 18 6 22 6 22 22 2 14 -18 16 -18 27 -4 16 21 67 34 67 16 0 -22 36
-45 62 -40 15 3 31 -2 40 -11 17 -17 68 -32 68 -21 0 4 -8 14 -17 21 -17 13
-17 13 0 14 9 0 25 -9 34 -20 22 -25 33 -25 33 -1 0 14 10 20 37 24 20 4 40 2
43 -3 3 -4 33 -12 68 -16 51 -5 62 -10 62 -25 0 -13 -6 -18 -20 -16 -11 2 -23
6 -26 10 -4 4 -16 7 -27 7 -32 0 -13 -24 27 -35 32 -7 40 -6 47 8 18 31 82 12
71 -21 -3 -9 4 -7 17 4 11 10 21 24 21 31 0 7 11 13 25 13 26 0 34 -14 13 -24
-7 -3 -1 -5 14 -3 19 3 25 0 21 -10 -3 -8 2 -13 16 -13 12 0 21 5 21 10 0 6 8
10 18 8 10 -2 16 2 14 10 -2 10 2 10 19 2 15 -9 19 -18 15 -35 -3 -13 -2 -26
2 -29 12 -7 44 34 38 49 -6 16 21 29 29 15 4 -6 14 -10 24 -10 14 0 16 -7 13
-37 l-3 -38 16 30 c19 35 39 58 31 35 -3 -9 5 -23 21 -34 14 -11 23 -15 20 -9
-7 11 19 53 34 53 5 0 9 -7 9 -15 0 -8 6 -15 13 -16 6 0 21 -3 32 -6 11 -3 38
-6 60 -7 41 -2 75 -24 88 -59 3 -9 11 -17 17 -17 13 0 13 17 1 22 -5 2 -11 9
-13 17 -3 15 39 23 48 9 3 -4 14 -8 26 -8 16 0 19 -5 16 -24 -3 -16 -1 -23 7
-20 7 3 15 -8 20 -28 6 -26 9 -29 12 -13 7 29 23 43 23 20 0 -15 2 -17 9 -6 6
10 13 10 28 3 14 -8 23 -8 30 -1 14 14 59 7 56 -8 -4 -17 24 -5 31 13 8 20 43
18 71 -4 14 -11 37 -18 57 -17 18 1 36 -3 40 -9 5 -7 8 -4 8 7 0 18 15 23 24
8 3 -4 29 -11 58 -13 38 -4 57 -11 70 -28 10 -13 21 -20 25 -16 4 3 1 12 -5
18 -17 17 -15 38 3 38 8 0 15 -5 15 -12 0 -6 3 -8 6 -5 4 3 14 2 24 -3 11 -6
24 -4 38 6 13 9 23 11 27 4 3 -5 0 -10 -8 -10 -33 0 -27 -49 6 -50 5 0 5 -4 2
-10 -3 -5 3 -10 14 -10 12 0 21 7 21 15 0 7 8 19 18 24 16 10 16 12 0 25 -22
16 -23 26 -2 26 8 0 12 -4 9 -10 -3 -6 5 -10 19 -10 13 0 26 3 29 8 2 4 2 1 0
-6 -1 -8 -3 -20 -3 -28 0 -8 -10 -14 -25 -14 -18 0 -23 -4 -19 -15 4 -8 10
-15 15 -15 12 0 49 42 44 50 -2 4 3 7 11 7 9 0 21 -10 26 -23 10 -22 41 -37
52 -26 3 3 1 11 -5 18 -19 23 -6 35 21 21 33 -17 37 -43 8 -50 -18 -5 -20 -9
-11 -18 10 -10 16 -9 31 4 9 9 28 15 40 14 27 -2 29 -17 2 -17 -11 0 -20 -5
-20 -11 0 -5 -4 -7 -10 -4 -5 3 -10 2 -10 -3 0 -15 13 -22 24 -13 6 5 26 12
44 16 25 5 32 3 32 -9 0 -9 -8 -17 -17 -17 -17 -1 -17 -2 0 -6 15 -4 16 -7 5
-20 -12 -15 -10 -15 10 -4 13 7 26 19 29 27 8 22 -14 63 -39 74 -16 6 -18 9
-6 9 9 1 18 7 21 14 2 6 3 4 2 -5 -2 -13 4 -18 19 -18 15 0 30 -13 46 -40 14
-22 28 -40 32 -40 4 0 3 -14 -2 -31 -5 -18 -7 -29 -3 -25 3 3 12 1 20 -6 16
-13 28 -4 47 34 6 12 22 24 35 26 14 2 21 9 17 17 -2 7 2 16 10 19 8 3 14 12
14 20 0 7 9 16 21 19 12 3 18 3 15 0 -3 -4 -1 -12 5 -19 12 -15 -2 -35 -33
-47 -16 -6 -18 -36 -9 -129 1 -12 41 -9 41 2 0 6 -4 10 -9 10 -16 0 -21 44 -6
53 8 4 15 15 15 23 0 8 5 12 10 9 6 -3 7 -17 4 -31 -5 -18 -2 -24 10 -25 9 -1
22 -2 28 -3 7 0 14 -9 16 -19 3 -16 0 -18 -28 -12 -23 5 -30 4 -26 -4 4 -6 14
-11 22 -11 8 0 12 -4 9 -10 -3 -5 6 -12 20 -16 35 -9 31 -24 -7 -25 -91 -4
-515 -9 -845 -10 -342 -1 -371 -2 -366 -17 4 -13 2 -12 -10 3 -14 18 -17 18
-42 5 -21 -11 -28 -12 -34 -1 -6 9 -29 11 -87 7 -43 -3 -101 -5 -129 -6 -27 0
-86 -1 -130 -2 -159 -2 -184 -3 -192 -12 -4 -5 -1 -7 9 -3 10 3 19 0 22 -9 10
-25 7 -31 -13 -37 -14 -3 -21 2 -25 19 -4 13 -13 24 -21 24 -22 0 -30 -4 -27
-12 1 -5 -2 -8 -7 -8 -5 0 -11 -9 -14 -20 -8 -29 -37 -26 -37 5 0 14 -6 25
-14 25 -9 0 -12 -8 -8 -27 4 -21 2 -25 -11 -20 -17 6 -42 -24 -30 -36 3 -4
-17 5 -45 18 -55 27 -82 31 -82 15 0 -5 9 -10 20 -10 11 0 20 -5 20 -10 0 -6
-15 -10 -34 -8 -19 1 -32 6 -29 11 3 5 -3 7 -13 5 -11 -2 -18 -11 -18 -20 2
-27 -25 -9 -28 20 -4 35 -23 38 -53 8 -14 -14 -25 -23 -25 -20 0 3 -7 -1 -15
-10 -8 -8 -15 -22 -15 -30 0 -9 -4 -16 -9 -16 -5 0 -16 -3 -25 -6 -12 -5 -16
0 -16 20 0 14 -4 26 -10 26 -5 0 -10 -7 -10 -15 0 -8 -6 -26 -13 -42 l-12 -27
-6 34 -6 35 -14 -32 c-16 -39 -29 -43 -29 -9 0 20 -4 23 -21 19 -12 -4 -24
-14 -26 -25 -7 -23 -8 -23 -33 2 -22 22 -45 18 -36 -6 3 -7 1 -16 -4 -19 -6
-4 -10 1 -10 9 0 19 -36 40 -45 27 -3 -5 5 -17 17 -26 l23 -17 -22 5 c-14 3
-23 0 -23 -7 0 -7 -14 -10 -40 -8 -28 3 -40 0 -40 -9 0 -7 -2 -10 -5 -7 -14
14 10 38 39 39 28 0 29 1 9 9 -13 5 -23 16 -23 24 0 7 -7 16 -15 20 -11 4 -15
-1 -15 -18 0 -26 -43 -61 -65 -52 -16 6 -30 -28 -19 -46 6 -10 5 -11 -8 -1 -8
7 -18 10 -21 6 -4 -3 -7 1 -7 10 0 10 9 26 20 37 12 12 15 22 9 26 -6 4 -15 1
-19 -6 -4 -7 -15 -10 -23 -7 -12 4 -14 2 -10 -10 5 -12 3 -14 -7 -8 -10 6 -12
4 -7 -8 3 -9 0 -18 -9 -21 -24 -9 -150 -19 -142 -11 4 4 23 7 42 7 27 0 37 5
42 22 4 11 12 24 18 28 8 5 8 10 0 18 -9 9 -13 4 -18 -15 -5 -19 -13 -26 -29
-25 -12 1 -42 2 -67 1 -40 -1 -43 -3 -27 -15 9 -7 17 -18 17 -25 0 -15 -27
-14 -37 2 -4 7 -29 18 -55 24 -39 8 -48 8 -48 -3 0 -8 9 -14 19 -14 11 0 23
-4 26 -10 3 -6 -4 -10 -17 -10 -14 0 -19 -3 -11 -8 7 -5 9 -13 4 -21 -6 -10
-11 -5 -16 18 -3 17 -11 31 -16 31 -5 0 -9 7 -9 17 0 14 -2 14 -21 -3 -20 -18
-22 -18 -34 -1 -6 9 -17 17 -24 17 -6 0 -11 5 -11 10 0 6 -7 10 -15 10 -22 0
-18 -18 5 -25 11 -3 20 -11 20 -16 0 -6 7 -17 15 -25 17 -18 20 -34 4 -34 -5
0 -8 4 -5 8 6 10 -26 27 -60 35 -13 3 -25 -3 -33 -14 -15 -25 -31 -24 -24 0 7
27 -14 36 -27 11 -6 -11 -19 -20 -30 -20 -10 0 -20 -5 -22 -12 -3 -9 -12 -9
-36 1 -17 7 -29 17 -26 22 3 5 -7 9 -23 9 -21 0 -25 -3 -13 -10 27 -17 -2 -31
-40 -20 -19 6 -51 10 -71 10 -20 0 -39 3 -43 7 -14 14 -35 11 -41 -7 -7 -21
-45 -23 -45 -3 0 7 -5 13 -11 13 -7 0 -8 -11 -4 -30 4 -18 3 -30 -4 -30 -6 0
-8 6 -5 13 7 20 -70 54 -81 37 -4 -6 3 -10 15 -10 31 0 19 -25 -13 -25 -14 -1
-23 3 -21 7 11 18 -30 6 -47 -14 -11 -11 -19 -17 -19 -12 0 5 -7 0 -15 -10
-12 -16 -15 -17 -20 -4 -3 8 -5 19 -4 24 1 5 1 18 0 29 -2 19 -3 19 -15 3 -9
-13 -16 -14 -24 -6 -8 8 -18 5 -36 -13 -14 -13 -26 -30 -26 -36 0 -21 -31 -15
-37 7 -6 23 -23 27 -23 5 0 -8 -7 -15 -15 -15 -8 0 -15 -4 -15 -10 0 -5 -18
-10 -40 -10 -22 0 -40 5 -40 11 0 7 11 8 30 4 19 -4 30 -3 30 4 0 6 -9 11 -19
11 -11 0 -22 6 -25 13 -3 8 -12 4 -27 -13 -14 -16 -23 -21 -26 -12 -3 6 -11
12 -18 12 -22 0 -29 22 -11 32 28 15 18 27 -11 13 -16 -8 -40 -18 -54 -24 -21
-8 -26 -15 -23 -38 2 -15 1 -20 -2 -10 -3 9 -14 17 -25 17 -10 0 -19 4 -19 8
0 13 -50 33 -61 26 -6 -3 -17 2 -25 12 -14 17 -15 17 -10 2 3 -10 -1 -21 -8
-25 -7 -5 -16 -15 -19 -23 -4 -8 -4 0 -1 19 6 32 5 33 -18 28 -17 -5 -27 -1
-36 14 -10 16 -16 18 -33 8 -12 -6 -32 -9 -44 -7 -16 3 -22 1 -18 -8 3 -9 -2
-11 -18 -7 -16 4 -20 2 -17 -8 3 -9 18 -13 43 -12 36 2 37 2 18 -12 -19 -13
-51 -14 -72 -1 -17 11 -81 17 -81 8 0 -9 -31 -23 -55 -26 -5 -1 -15 -8 -22
-16 -10 -13 -13 -13 -30 1 -11 9 -35 15 -60 14 -39 -1 -43 1 -43 23 l0 25 19
-21 c19 -23 51 -30 51 -12 0 6 -7 10 -16 10 -8 0 -22 6 -30 14 -16 17 -54 10
-54 -10 0 -22 -27 -16 -33 6 -3 13 -10 18 -21 14 -9 -3 -13 -10 -10 -15 3 -5
-8 -9 -24 -9 -30 0 -52 -25 -29 -33 7 -2 1 -2 -12 0 -18 3 -22 0 -17 -12 3 -9
2 -13 -4 -10 -17 10 -57 -6 -67 -27 -9 -20 -10 -20 -27 -3 -14 15 -21 16 -39
6 -18 -10 -29 -9 -52 3 -19 10 -33 12 -39 6 -6 -6 -19 -10 -30 -10 -11 0 -28
-8 -38 -17 -16 -14 -21 -15 -28 -3 -7 11 -11 10 -25 -3 -19 -20 -24 -20 -45
-7 -10 6 -11 10 -2 10 6 0 12 8 12 18 0 13 -2 14 -9 4 -4 -8 -14 -12 -22 -11
-8 2 -24 -2 -37 -9 -12 -7 -28 -10 -34 -6 -7 4 -8 3 -4 -4 5 -8 0 -12 -12 -12
-11 0 -25 -7 -32 -15 -7 -8 -21 -15 -32 -15 -12 0 -17 -4 -12 -12 4 -7 3 -8
-4 -4 -7 4 -56 -15 -109 -42 -186 -92 -538 -275 -543 -281 -3 -3 -59 -34 -125
-67 -66 -34 -156 -81 -200 -106 -82 -46 -177 -97 -312 -169 -43 -23 -96 -52
-118 -64 -43 -24 -275 -149 -415 -222 -47 -25 -122 -65 -167 -89 -46 -24 -122
-65 -170 -90 -49 -26 -110 -59 -138 -74 -96 -53 -306 -162 -475 -246 -219
-110 -277 -137 -383 -180 -62 -25 -121 -49 -132 -54 -42 -17 -284 -91 -361
-110 -44 -10 -120 -24 -169 -31 -106 -14 -465 -18 -617 -6 l-108 9 -10 36
c-18 64 -42 219 -38 248 2 23 9 30 31 32 16 2 36 -3 45 -10 13 -11 14 -11 7 1
-6 11 -2 13 23 8 129 -26 468 -16 627 19 44 10 90 18 102 18 11 1 19 5 15 10
-3 5 5 7 16 4 12 -4 20 -3 18 1 -7 11 91 44 104 36 6 -4 20 4 32 17 l20 23 -7
-25 c-7 -24 -6 -24 7 -6 8 10 20 16 26 12 7 -4 12 -3 12 3 0 5 -6 12 -12 15
-7 2 -2 4 12 3 14 -1 24 3 23 9 -1 7 6 10 17 7 12 -3 22 1 25 9 4 10 16 14 33
11 15 -1 21 0 15 3 -19 9 -16 24 4 17 12 -5 14 -3 8 7 -6 9 -4 11 4 5 7 -4 24
-2 37 6 18 9 21 15 12 20 -8 5 -1 7 17 6 20 -1 29 2 27 11 -1 8 2 11 7 8 8 -6
71 21 81 34 3 4 29 19 58 34 29 15 50 31 47 35 -2 5 2 11 10 15 8 3 15 0 15
-7 0 -8 3 -9 8 -1 4 6 17 16 30 23 13 7 20 17 16 24 -4 7 -4 9 0 5 4 -4 29 5
54 20 78 43 96 52 110 52 6 0 12 5 12 11 0 6 -7 8 -16 5 -9 -3 -12 -2 -9 5 4
6 14 8 22 5 19 -7 45 12 37 26 -4 6 4 4 17 -2 13 -7 21 -9 17 -5 -4 4 0 14 10
22 16 12 16 13 -3 7 -15 -4 -16 -3 -6 4 7 5 22 7 33 4 10 -2 18 -1 17 4 -4 21
2 28 11 14 8 -13 10 -12 10 3 0 9 5 18 10 18 19 3 25 5 58 22 18 10 30 23 26
28 -4 7 1 9 15 4 11 -3 21 -2 21 2 0 5 20 19 46 31 25 12 43 26 40 31 -4 5 14
21 38 35 48 28 61 32 51 16 -3 -6 1 -7 9 -4 9 3 14 10 11 14 -3 4 2 11 11 14
8 3 12 2 9 -4 -3 -6 1 -7 9 -4 9 3 14 10 11 14 -7 11 24 22 37 13 7 -3 8 -1 4
5 -9 15 137 60 256 78 53 8 193 19 310 24 297 13 358 33 663 213 147 87 225
160 244 230 32 114 -14 214 -122 266 -73 35 -370 109 -1072 265 -88 20 -250
56 -360 81 -173 39 -303 67 -650 141 -38 9 -164 35 -280 60 -115 25 -230 49
-255 54 -25 5 -108 23 -185 39 -77 16 -239 50 -360 75 -282 59 -265 54 -265
72 0 10 -6 14 -14 11 -12 -5 -12 0 1 31 49 120 130 281 205 405 63 105 78 129
239 357 216 307 293 482 398 900 50 198 48 190 62 190 6 0 34 -22 62 -49z
m16321 -23 c133 -539 202 -698 460 -1058 191 -267 281 -420 400 -684 41 -89
42 -93 21 -76 -12 10 -15 10 -15 -3 0 -16 -6 -18 -195 -53 -44 -9 -118 -24
-165 -35 -47 -10 -168 -35 -270 -55 -102 -20 -214 -42 -250 -49 -71 -15 -197
-40 -275 -55 -27 -5 -67 -14 -88 -19 -20 -5 -47 -6 -59 -3 -14 3 -19 1 -14 -6
4 -7 1 -12 -6 -12 -7 0 -24 -3 -38 -6 l-25 -5 25 15 c24 14 23 15 -30 11 -51
-5 -52 -4 -21 6 43 13 25 29 -32 29 -21 0 -36 4 -33 9 3 4 -6 13 -19 19 -31
14 -33 54 -5 84 11 12 20 28 20 37 0 8 3 11 7 8 14 -15 33 18 33 59 0 24 5 44
10 44 6 0 10 17 10 38 l0 39 50 -2 c34 -1 50 2 50 11 0 7 6 14 13 17 9 3 9 8
-3 21 -12 16 -12 19 3 27 18 11 23 39 7 39 -5 0 -10 8 -10 18 0 10 6 19 14 19
8 0 12 -6 9 -14 -3 -7 -1 -13 3 -14 5 0 17 -2 27 -4 20 -4 22 6 5 24 -10 10
-10 15 -1 18 22 8 -7 50 -38 57 -16 3 -29 12 -29 20 0 9 6 13 13 10 8 -3 20 2
27 11 7 8 19 15 26 15 17 0 19 20 2 20 -22 1 -54 34 -62 63 -6 24 -11 27 -52
27 -28 0 -43 -4 -39 -10 3 -5 -1 -10 -9 -10 -8 0 -18 9 -21 20 -3 11 -15 20
-25 20 -10 0 -21 7 -24 16 -3 9 -13 14 -21 11 -10 -4 -12 -1 -8 11 6 15 4 15
-10 4 -8 -8 -14 -19 -11 -26 3 -9 -5 -15 -21 -19 -23 -4 -28 0 -37 24 -5 16
-16 29 -24 29 -8 0 -14 6 -14 13 0 9 -2 9 -8 1 -8 -14 -322 -6 -322 7 0 5 -18
9 -41 9 -29 0 -40 -4 -36 -13 8 -21 -72 -8 -86 14 -7 10 -17 19 -24 19 -7 0
-16 6 -20 14 -14 23 -50 29 -62 9 -5 -10 -12 -15 -15 -12 -3 3 6 17 19 32 14
14 25 28 25 30 0 1 -17 4 -37 5 -43 3 -39 1 -47 27 -5 19 -2 20 37 17 23 -3
48 -9 55 -14 18 -15 16 20 -3 39 -12 12 -19 12 -30 3 -8 -6 -24 -10 -37 -8
-23 4 -22 5 5 16 15 6 27 16 27 22 0 5 8 10 18 10 11 0 18 7 18 19 0 11 -5 17
-13 14 -10 -4 -13 9 -13 51 0 31 5 56 10 56 6 0 10 5 10 11 0 12 19 33 40 42
8 4 3 5 -12 2 -21 -4 -28 -1 -28 10 0 9 4 13 10 10 6 -3 7 1 4 9 -3 9 -10 13
-15 10 -5 -3 -9 4 -9 16 0 11 8 23 18 26 9 3 25 10 35 15 10 5 22 7 27 4 5 -3
11 -1 15 5 3 6 -4 10 -17 10 -13 0 -30 5 -38 10 -16 10 -9 13 30 11 18 -1 21
1 12 7 -10 7 -7 11 12 14 14 3 26 1 26 -3 0 -5 7 -9 16 -9 14 0 14 3 4 15 -7
8 -10 15 -7 15 3 0 13 3 23 7 13 5 15 3 9 -8 -4 -8 -5 -11 -1 -7 4 3 8 10 8
15 0 18 22 33 49 33 22 0 32 6 39 25 5 14 15 25 21 25 18 0 297 143 434 222
226 130 428 268 530 362 33 30 65 55 70 56 6 0 19 -33 29 -72z m1646 -1853
c166 -27 392 -75 480 -102 47 -14 112 -27 145 -29 33 -2 62 -4 65 -4 3 0 -2
-5 -11 -10 -9 -5 -60 -12 -114 -15 -53 -3 -102 -8 -108 -12 -5 -3 -7 -1 -3 5
3 6 37 14 74 18 37 4 62 9 55 11 -12 4 -130 -10 -353 -42 -58 -8 -123 -18
-145 -20 -22 -3 -55 -8 -74 -12 -27 -4 -32 -3 -25 8 5 9 -1 8 -19 -3 -30 -20
-64 -23 -69 -7 -3 8 -9 7 -19 -3 -8 -8 -26 -18 -41 -21 -24 -6 -27 -5 -25 20
2 24 -1 28 -22 25 -20 -3 -23 -1 -18 19 6 21 4 21 -17 -5 -15 -20 -25 -25 -30
-18 -5 8 -13 6 -28 -8 -22 -21 -41 -19 -20 2 16 16 15 28 -3 28 -8 0 -15 -7
-15 -15 0 -18 -12 -19 -28 -3 -9 9 -12 9 -12 0 0 -6 -10 -16 -22 -23 -21 -11
-20 -11 2 22 13 18 19 29 13 26 -7 -4 -14 -3 -18 3 -3 5 1 10 10 10 21 0 65
29 65 43 0 7 -4 7 -12 -1 -14 -14 -58 -16 -58 -3 0 10 59 21 78 13 7 -2 10
-12 7 -22 -6 -18 -4 -18 35 1 22 11 40 22 40 25 0 2 -9 0 -20 -6 -24 -13 -44
-4 -36 17 3 8 1 11 -4 8 -6 -3 -10 0 -10 7 0 29 -17 40 -49 33 -19 -4 -29 -11
-24 -18 4 -7 0 -8 -11 -4 -10 4 -30 7 -44 8 -15 0 33 13 105 29 73 16 139 31
145 33 24 10 94 7 188 -8z m-9907 -425 c4 -16 11 -18 43 -14 33 4 35 3 16 -6
-17 -7 -22 -15 -17 -29 5 -17 -1 -21 -47 -28 -49 -9 -41 -10 89 -17 78 -5 146
-5 152 -2 13 8 51 -10 69 -33 66 -83 381 -640 452 -798 36 -81 11 -43 -60 95
-80 152 -220 402 -225 402 -2 0 32 -71 75 -157 48 -94 75 -160 69 -163 -6 -4
-4 -12 6 -20 18 -15 20 -34 3 -24 -7 4 -6 -1 3 -12 17 -20 23 -94 8 -94 -6 0
-5 -9 1 -20 9 -17 8 -20 -10 -20 -12 0 -19 -4 -16 -8 3 -5 0 -9 -7 -9 -7 -1
-35 -6 -63 -11 -28 -6 -81 -12 -117 -13 -54 -2 -67 -5 -67 -18 -1 -9 -10 9
-20 39 -11 30 -77 162 -146 294 l-126 239 20 41 c12 23 51 95 86 161 36 66 57
109 46 96 -48 -57 -253 -425 -382 -686 -49 -99 -92 -180 -96 -181 -4 0 -32 -4
-62 -8 -82 -11 -356 -15 -371 -6 -11 7 -11 14 1 37 8 15 21 35 29 45 14 17 33
51 130 233 29 55 94 171 143 257 52 91 87 162 82 169 -4 7 -3 9 3 6 6 -4 13
-1 16 6 3 7 -4 12 -18 12 -13 0 -21 -5 -18 -12 3 -7 -3 -10 -14 -8 -10 2 -20
4 -23 4 -3 1 2 6 10 11 10 6 11 10 3 10 -7 0 -13 6 -13 14 0 7 -10 21 -22 29
l-23 16 25 -2 c21 -2 24 2 22 21 -2 12 1 22 7 22 6 0 8 6 5 13 -3 8 1 18 8 23
22 16 87 36 98 29 14 -8 13 8 -1 22 -18 18 -1 37 19 21 12 -10 16 -10 19 0 3
6 9 10 14 6 5 -3 9 0 9 7 0 8 4 8 15 -1 12 -10 16 -9 21 4 4 12 11 13 24 6 20
-11 83 -2 75 10 -5 8 11 18 31 19 7 1 14 -8 17 -19z m-9038 -265 c61 -8 187
-26 280 -39 156 -23 376 -49 500 -61 28 -2 165 -18 305 -35 280 -33 1000 -115
1150 -130 52 -6 194 -21 315 -35 121 -13 310 -34 420 -45 257 -26 299 -33 295
-45 -1 -5 -34 -30 -73 -55 l-71 -45 -285 32 c-398 45 -973 111 -1116 128 -66
8 -181 21 -255 30 -257 30 -847 103 -1090 135 -85 12 -184 23 -220 26 -105 8
-364 45 -371 52 -3 4 -4 31 -1 61 l4 54 52 -7 c28 -3 101 -13 161 -21z m18399
3 c3 -13 6 -39 6 -59 l0 -36 -77 -7 c-43 -4 -89 -10 -102 -13 -15 -4 -22 -2
-18 4 4 6 -11 29 -33 52 -25 26 -36 43 -28 45 11 3 195 30 234 35 7 0 14 -9
18 -21z m1424 -92 c3 -11 0 -16 -7 -12 -18 11 -13 -34 10 -94 17 -43 22 -82
25 -185 3 -132 -7 -192 -20 -118 -10 50 -32 83 -56 83 -26 0 -26 36 0 70 22
29 25 70 8 150 -14 69 -4 133 20 128 9 -2 18 -12 20 -22z m-3469 -140 c-8 -8
-157 -30 -231 -34 -25 -2 -30 -5 -18 -12 8 -5 11 -10 5 -10 -49 -2 135 -50
192 -50 67 0 28 -8 -147 -29 -96 -12 -209 -26 -250 -31 -73 -10 -636 -72 -772
-85 -72 -8 -89 -1 -195 71 -33 22 -34 23 -11 28 41 9 160 25 268 36 58 6 148
15 200 20 52 6 196 21 320 35 124 13 279 29 345 36 66 6 149 15 185 19 84 9
114 11 109 6z m-18044 -536 c4 -80 7 -151 8 -157 0 -7 4 -13 8 -13 4 0 10 -12
14 -27 14 -57 127 -184 215 -242 l55 -36 -31 -3 c-38 -4 -144 23 -194 48 -85
43 -141 145 -143 259 -2 83 11 232 30 356 l18 110 7 -75 c3 -41 10 -140 13
-220z m21614 18 c1 -31 6 -79 13 -107 10 -43 9 -64 -6 -129 -20 -85 -56 -155
-92 -178 -12 -9 -45 -24 -73 -35 -75 -28 -68 3 14 67 14 11 16 17 8 20 -7 3
-13 10 -13 16 0 6 10 3 23 -8 12 -10 19 -15 15 -10 -8 10 8 28 39 44 21 12 33
69 34 167 1 22 5 52 11 68 7 18 7 31 1 40 -12 15 -17 234 -6 262 9 23 31 -123
32 -217z m-10675 -289 c-20 -41 -79 -152 -131 -247 -52 -96 -92 -176 -89 -179
22 -22 360 53 422 93 12 8 48 57 79 109 31 52 59 95 61 95 6 0 -2 -16 -100
-183 -45 -78 -89 -153 -97 -167 -8 -14 -20 -33 -28 -42 -7 -10 -11 -24 -7 -33
3 -10 2 -14 -5 -10 -6 4 -16 -1 -24 -11 -12 -17 -34 -20 -232 -24 -245 -6
-245 -6 -282 65 -11 22 -40 72 -62 110 -75 126 -193 338 -167 301 7 -10 51
-80 98 -155 l86 -136 89 -48 c105 -55 90 -64 167 93 29 60 58 109 64 109 10 1
122 201 170 303 10 21 19 36 21 34 3 -2 -12 -37 -33 -77z m-1263 -1029 c106
-14 114 -16 100 -34 -6 -7 -7 -16 -3 -21 4 -4 -18 -5 -48 -1 -105 14 -225 15
-270 2 -25 -7 -52 -15 -60 -17 -8 -2 -18 -8 -22 -14 -4 -6 -8 -2 -8 8 0 9 -4
17 -9 17 -19 0 -75 -48 -93 -80 -20 -35 -20 -35 -13 -5 3 17 13 40 21 53 25
39 102 87 147 92 90 11 178 11 258 0z m2535 -235 c-6 -23 -3 -25 25 -25 44 0
33 -19 -29 -53 -105 -57 -327 -60 -438 -6 -24 11 -54 35 -66 52 -11 18 -15 26
-8 20 8 -7 26 -13 41 -13 16 0 50 -12 76 -26 45 -24 55 -25 163 -22 104 4 120
7 163 32 27 16 54 37 60 47 16 26 20 24 13 -6z m-2766 -49 c69 -20 209 -21
284 -1 33 9 61 13 64 11 14 -15 -11 -55 -40 -65 -59 -21 -235 -25 -317 -7 -74
15 -161 58 -161 78 0 14 96 5 170 -16z m892 -3 l-3 -23 206 0 206 0 -3 -22 -3
-23 -237 -3 -238 -2 0 50 0 51 38 -3 c32 -3 37 -6 34 -25z m-8277 -467 c-5 20
-2 21 57 19 35 0 72 -5 83 -9 69 -27 75 -28 90 -16 9 7 24 9 37 5 13 -3 45 -9
73 -11 27 -3 52 -9 55 -14 3 -5 43 -8 88 -7 45 1 82 -1 82 -6 0 -4 11 -5 24
-1 13 3 27 1 30 -4 4 -7 17 -6 36 1 24 9 35 9 52 -2 12 -7 48 -13 85 -13 43 0
68 -4 78 -14 10 -10 15 -11 15 -4 0 9 13 10 48 5 26 -5 58 -9 72 -9 14 -1 31
-5 38 -9 7 -5 14 -2 18 8 4 10 10 12 18 6 6 -5 32 -8 58 -7 27 2 60 -3 74 -10
19 -10 36 -12 58 -6 35 10 107 6 115 -5 7 -10 111 -12 111 -2 0 9 51 6 68 -4
20 -13 120 -20 102 -7 -16 11 19 6 71 -10 15 -4 32 -4 40 1 14 10 197 3 281
-10 25 -4 53 -4 61 1 9 4 26 4 40 -1 31 -12 137 -12 177 -1 22 6 34 5 45 -6 9
-9 23 -13 35 -9 10 3 30 -1 43 -10 19 -12 30 -13 57 -3 21 7 35 8 37 2 2 -6
37 -9 80 -7 52 2 79 -1 84 -9 6 -9 16 -9 43 -1 21 7 38 7 42 2 7 -12 44 -11
44 1 0 15 21 12 42 -7 17 -15 19 -15 32 3 13 17 15 17 21 2 5 -14 12 -15 36
-6 19 7 34 7 42 0 6 -5 57 -11 112 -12 122 -3 205 -7 268 -11 26 -2 49 1 50 6
3 6 16 5 39 -2 41 -16 94 -17 103 -3 3 6 12 10 18 10 7 0 6 -4 -3 -10 -14 -9
88 -17 160 -12 14 1 40 -3 58 -9 24 -8 36 -8 47 1 19 16 49 5 41 -15 -4 -12
-1 -13 14 -5 11 6 29 14 39 20 12 5 31 6 52 0 17 -5 36 -7 42 -3 5 3 13 -1 18
-8 6 -10 9 -11 9 -1 0 6 7 12 15 12 8 0 15 -4 15 -10 0 -16 27 -11 34 6 9 23
52 14 48 -10 -2 -11 1 -16 10 -13 7 2 12 11 12 20 -1 10 3 14 9 10 18 -11 47
-14 109 -13 41 1 57 -3 60 -13 3 -13 10 -12 52 1 46 15 49 15 62 -2 9 -13 19
-16 31 -11 10 5 23 7 28 5 6 -1 40 -2 78 -1 40 1 67 -2 67 -9 0 -5 9 -10 20
-10 11 0 20 4 20 9 0 14 69 11 83 -3 7 -7 21 -11 32 -9 19 3 138 4 195 1 14 0
44 2 68 6 26 4 41 3 38 -3 -9 -14 16 -19 49 -9 29 8 315 2 324 -7 2 -3 -3 -5
-12 -5 -10 0 -17 -5 -17 -11 0 -6 12 -9 28 -7 16 2 26 8 24 17 -3 13 23 12 96
-6 16 -4 22 -1 22 11 0 9 5 16 10 16 6 0 10 -7 10 -15 0 -8 5 -15 10 -15 6 0
10 7 10 15 0 23 17 18 23 -7 5 -17 9 -19 21 -9 10 9 24 10 49 3 22 -6 40 -6
52 0 14 8 16 8 10 -2 -6 -10 0 -11 26 -6 72 16 89 17 89 7 0 -7 25 -11 61 -11
33 0 70 -5 81 -11 15 -8 27 -8 45 2 19 10 31 10 57 1 41 -15 76 -15 76 -1 0 7
14 8 43 3 23 -4 57 -8 75 -9 18 0 38 -8 43 -16 7 -11 11 -11 17 -2 4 7 24 12
42 12 19 -1 68 -1 108 -1 39 0 72 -3 72 -8 0 -4 36 -6 81 -3 49 3 79 1 75 -5
-3 -6 11 -6 37 -2 23 5 44 5 47 2 3 -4 19 -8 35 -9 17 -1 50 -4 75 -5 25 -2
68 -1 95 3 29 4 90 1 145 -6 52 -8 122 -13 155 -13 34 1 70 -4 81 -10 16 -9
26 -8 40 2 14 10 22 11 36 2 13 -8 23 -8 37 1 15 10 20 10 24 0 4 -12 55 -14
123 -4 22 3 31 3 22 1 -37 -11 -16 -22 34 -18 28 2 59 -1 68 -6 11 -6 21 -5
29 3 10 9 11 8 5 -7 -7 -18 -6 -18 18 -2 18 12 39 15 74 12 31 -3 51 -1 56 7
5 9 10 9 20 -1 9 -9 8 -12 -6 -12 -10 0 -16 -5 -14 -11 3 -8 51 -12 150 -13
80 0 144 2 141 7 -4 7 53 0 68 -8 4 -3 9 0 11 6 3 8 15 8 45 0 23 -7 54 -9 68
-5 15 4 25 2 25 -5 0 -6 -5 -11 -11 -11 -5 0 -7 -4 -4 -10 3 -5 16 -10 29 -10
12 0 28 -6 35 -12 10 -11 11 -8 6 13 -6 24 -4 26 27 25 18 -1 38 -7 44 -15 8
-10 15 -11 32 -2 32 17 102 14 102 -4 0 -18 12 -19 28 -3 18 18 40 -6 23 -26
-10 -12 -1 -15 65 -18 64 -2 79 0 88 14 7 13 14 14 23 6 10 -8 13 -6 13 8 0
14 5 11 19 -12 20 -34 61 -52 61 -28 0 8 7 14 16 14 12 0 15 6 10 25 -9 36 9
31 33 -11 13 -22 25 -32 33 -28 8 5 7 9 -5 13 -11 4 -13 11 -8 20 6 9 11 10
15 2 4 -6 16 -11 27 -11 14 0 19 -7 19 -30 0 -16 5 -30 10 -30 6 0 10 7 10 15
0 21 12 19 34 -7 l19 -21 13 29 c7 17 13 22 13 12 1 -12 14 -17 59 -22 31 -3
76 -8 98 -11 25 -4 50 -2 63 4 17 10 21 9 21 -3 0 -8 -10 -18 -22 -22 -20 -6
-21 -7 -2 -17 10 -6 39 -10 64 -8 35 1 42 -1 30 -9 -12 -9 -11 -10 8 -5 13 4
22 2 22 -5 0 -6 5 -8 10 -5 6 3 10 2 10 -4 0 -6 -19 -9 -47 -6 -74 7 -170 22
-150 24 9 0 17 6 17 11 0 10 -15 14 -35 10 -5 -1 -18 -2 -28 -3 -10 -1 -15 -7
-13 -14 3 -7 -2 -14 -12 -15 -9 -1 12 -5 48 -9 36 -4 -902 -5 -2085 -4 -1910
3 -2838 11 -3645 30 -135 3 -488 10 -785 15 -297 5 -578 12 -625 15 -47 2
-161 7 -255 10 -93 3 -305 10 -470 15 -711 23 -974 51 -1213 129 -166 55 -297
134 -422 254 -95 92 -143 154 -136 172 8 21 21 19 35 -7 10 -20 11 -18 6 17
l-5 40 15 -30 c8 -17 13 -21 10 -9z m6095 -2807 c456 -22 1165 -53 1353 -59 4
0 7 -13 7 -28 0 -16 7 -44 16 -62 15 -29 16 -72 13 -369 l-4 -336 90 0 90 0 3
253 c1 138 6 252 10 251 4 0 33 -33 65 -72 33 -40 131 -154 220 -254 l161
-183 86 0 87 0 6 272 c4 149 7 325 7 391 l0 119 235 -4 c129 -1 235 -4 235 -6
0 -2 -36 -84 -80 -183 -84 -187 -240 -565 -240 -581 0 -5 45 -7 101 -6 l101 3
25 63 25 62 207 0 206 0 18 -48 c40 -102 24 -92 137 -92 100 0 101 0 95 23
-16 52 -144 367 -221 544 -46 106 -84 198 -84 205 0 10 41 12 193 10 l192 -3
17 -42 c14 -34 17 -86 20 -277 4 -220 5 -238 27 -287 55 -123 180 -183 385
-183 160 0 256 30 327 101 63 63 69 97 71 411 2 152 5 278 8 281 3 3 51 7 108
9 l102 4 0 -66 c0 -83 12 -725 14 -726 0 -1 144 -4 319 -6 l317 -4 0 78 0 78
-220 0 -220 0 0 325 0 325 98 1 c53 1 138 3 187 5 50 2 234 8 410 14 176 6
345 12 375 15 53 5 512 30 808 43 l142 7 5 -30 c2 -16 7 -307 10 -645 l7 -615
-24 -34 c-13 -19 -39 -44 -58 -55 l-35 -21 -3930 0 -3930 0 -38 24 c-21 13
-47 41 -59 65 l-21 41 13 625 c6 344 14 628 16 631 7 12 128 22 339 28 260 8
309 7 1055 -30z m1833 -70 c92 -2 172 -6 177 -9 7 -4 9 -95 8 -254 l-3 -248
-52 65 c-28 35 -128 150 -222 256 -94 105 -171 193 -171 195 0 2 21 2 48 1 26
-2 122 -5 215 -6z m2155 -18 c9 -1 12 -61 12 -263 0 -304 -2 -312 -84 -343
-61 -23 -206 -18 -253 10 -56 33 -58 43 -58 329 l0 261 100 5 c81 4 217 4 283
1z m-1095 -306 c37 -90 67 -168 67 -173 0 -5 -61 -9 -140 -8 l-141 1 6 24 c9
37 129 321 136 321 3 0 35 -74 72 -165z m-1708 -1314 c-3 -5 0 -13 6 -16 5 -4
8 -13 5 -21 -7 -19 10 -27 34 -14 17 9 24 8 38 -7 9 -10 14 -14 10 -9 -3 4 -4
14 -2 21 7 17 44 7 44 -12 0 -12 3 -13 14 -4 7 6 24 10 36 9 13 -2 25 3 27 10
3 6 -2 12 -11 12 -18 0 -21 15 -6 25 6 3 10 1 10 -5 0 -7 7 -10 15 -6 8 3 15
1 15 -5 0 -6 5 -7 10 -4 6 3 10 -1 10 -11 0 -15 2 -15 23 -2 12 8 42 14 67 14
l45 -1 -2 -35 c-2 -27 0 -31 6 -15 13 31 37 49 44 32 3 -8 20 -14 39 -15 29
-1 31 1 16 12 -20 15 -24 36 -8 36 6 0 23 -12 37 -27 17 -19 27 -24 30 -15 3
6 16 12 29 12 13 0 24 4 24 9 0 10 59 12 75 2 17 -9 35 -10 35 0 0 4 7 6 15 3
9 -4 15 -1 15 7 0 11 2 11 13 0 10 -11 10 -14 0 -18 -15 -5 -18 -43 -4 -43 5
0 11 6 14 13 3 8 9 6 19 -7 12 -15 17 -16 23 -6 5 9 4 15 -3 18 -7 2 -12 11
-12 19 0 11 5 13 18 8 9 -4 27 -10 40 -12 12 -3 22 -12 22 -20 0 -8 -5 -11
-11 -7 -7 4 -10 1 -7 -6 2 -8 13 -18 24 -24 10 -6 21 -12 23 -14 3 -1 -4 -9
-15 -17 -23 -17 -2 -20 25 -3 11 7 16 19 13 30 -3 12 1 18 12 18 21 0 20 10
-1 26 -17 12 -17 14 2 27 20 15 87 12 93 -4 2 -5 12 -4 23 1 23 13 59 -3 59
-25 0 -8 5 -15 10 -15 6 0 10 -18 10 -40 0 -33 3 -40 20 -40 17 0 20 7 20 39
0 23 -5 41 -12 44 -7 2 -2 2 12 0 32 -6 40 -20 29 -50 -12 -32 -12 -33 5 -33
8 0 16 -6 19 -12 2 -7 8 -9 13 -5 5 4 2 12 -6 17 -8 5 -11 12 -8 16 4 3 15 -1
24 -10 13 -14 14 -22 6 -39 -6 -12 -13 -40 -14 -62 -2 -32 -7 -40 -23 -40 -14
0 -21 -9 -25 -30 -4 -24 -7 -26 -12 -12 -4 9 -18 17 -31 17 -21 0 -24 5 -25
42 -2 52 -18 71 -24 29 -3 -17 -1 -31 4 -31 5 0 -1 -13 -14 -30 -25 -34 -42
-40 -33 -11 8 25 -9 35 -25 16 -15 -18 -30 -19 -30 -2 0 18 -24 67 -32 67 -12
0 -9 -38 3 -46 6 -3 8 -17 5 -29 -5 -18 -1 -25 14 -30 22 -7 26 -20 8 -31 -6
-4 -17 1 -23 10 -7 9 -17 16 -21 15 -5 -1 -22 3 -39 10 -16 7 -37 10 -47 8
-24 -7 -45 20 -30 35 7 7 12 19 12 27 -1 12 -5 11 -19 -6 -14 -17 -17 -33 -14
-65 6 -53 8 -55 28 -34 19 18 35 21 35 5 0 -5 -5 -7 -10 -4 -6 3 -13 -1 -16
-9 -4 -10 -18 -16 -36 -16 -26 0 -28 2 -18 15 15 19 3 38 -21 32 -21 -6 -22
-5 -13 17 3 9 10 16 16 16 5 0 6 -4 3 -10 -3 -5 -2 -10 3 -10 15 0 22 28 9 33
-7 2 -23 -4 -36 -15 -14 -10 -27 -15 -30 -11 -6 8 -71 16 -71 8 0 -23 14 -33
36 -25 20 8 26 6 31 -8 4 -9 11 -20 17 -24 16 -11 -1 -21 -21 -13 -10 5 -21 9
-25 9 -3 1 -10 4 -14 8 -4 4 -13 3 -20 -3 -15 -12 -34 -4 -31 14 2 7 -1 2 -7
-10 -10 -23 -26 -31 -26 -13 0 6 -7 10 -15 10 -8 0 -15 -9 -15 -19 0 -26 -10
-51 -20 -51 -5 0 -7 9 -5 19 4 20 -17 43 -47 54 -13 4 -18 1 -19 -11 0 -10 -3
-12 -6 -4 -2 6 -16 12 -29 12 -30 0 -40 21 -24 50 10 18 9 21 -2 18 -7 -3 -15
-13 -16 -24 -2 -10 -11 -25 -20 -32 -15 -11 -15 -14 -2 -22 8 -5 18 -6 22 -4
4 3 8 -2 8 -10 0 -15 -9 -18 -80 -21 -32 -2 -52 -13 -45 -26 4 -5 0 -9 -7 -9
-7 0 -19 9 -26 20 -7 12 -17 18 -22 15 -6 -3 -10 0 -10 8 0 8 13 17 29 20 33
7 46 30 26 47 -10 8 -17 7 -29 -5 -31 -31 -37 -9 -6 24 32 37 36 46 20 56 -6
4 -9 3 -8 -2 4 -15 -26 -51 -39 -46 -9 4 -11 0 -7 -11 4 -11 1 -16 -10 -16 -9
0 -16 6 -15 13 1 6 1 23 0 37 l-2 25 -10 -24 c-5 -13 -17 -30 -26 -36 -14 -11
-14 -13 6 -18 12 -3 25 -15 28 -26 3 -12 9 -21 14 -21 5 0 9 -9 9 -20 0 -11
-4 -20 -10 -20 -5 0 -10 7 -10 15 0 19 -31 55 -46 55 -7 0 -14 -7 -16 -17 -3
-15 -4 -15 -17 0 -12 15 -11 17 3 17 9 0 16 5 16 10 0 12 -20 13 -35 2 -5 -4
-11 -23 -13 -41 -1 -19 -5 -37 -7 -39 -7 -8 -40 31 -40 47 0 12 -9 16 -33 14
-45 -2 -50 -9 -23 -32 22 -19 21 -41 -1 -41 -6 0 -8 3 -5 6 10 10 -12 44 -28
44 -7 0 -16 6 -18 13 -4 8 -6 6 -6 -4 -1 -12 -8 -15 -25 -12 -16 3 -23 10 -19
19 3 8 0 14 -6 14 -6 0 -11 -8 -11 -18 0 -10 -5 -23 -12 -30 -9 -9 -5 -12 21
-12 22 0 31 -4 29 -12 -8 -22 -39 -21 -63 2 -13 13 -33 20 -47 19 -12 -2 -28
0 -35 4 -7 4 -23 1 -37 -8 -23 -16 -24 -15 -19 4 3 11 15 21 27 23 18 3 17 5
-11 18 -17 8 -36 25 -42 37 -14 30 -31 29 -31 -2 0 -15 8 -29 21 -36 14 -7 18
-14 11 -18 -7 -4 -8 -12 -2 -21 15 -23 12 -34 -5 -20 -8 7 -15 20 -15 30 0 9
-7 17 -15 17 -9 0 -15 -10 -15 -23 0 -28 -31 -49 -48 -32 -7 7 -12 17 -12 23
0 15 -50 11 -60 -5 -4 -7 -13 -9 -19 -5 -9 5 -9 10 0 21 18 22 3 29 -25 11
-26 -17 -38 -13 -29 9 3 8 1 14 -5 14 -6 0 -12 -6 -15 -12 -6 -19 -17 -5 -19
25 -3 33 -18 36 -18 5 0 -34 -11 -68 -21 -68 -5 0 -9 7 -9 15 0 8 -9 15 -20
15 -11 0 -20 -7 -20 -15 0 -8 -4 -15 -10 -15 -5 0 -10 7 -10 15 0 8 -8 15 -17
15 -17 1 -17 1 0 14 27 20 21 23 -30 15 -56 -8 -62 -5 -45 22 15 23 8 39 -16
38 -15 -1 -15 -2 1 -6 28 -7 20 -24 -10 -21 -22 2 -28 -1 -28 -17 0 -27 -13
-45 -32 -45 -11 0 -13 4 -6 13 6 6 13 24 15 40 4 22 3 25 -8 16 -8 -6 -14 -20
-14 -29 0 -32 -12 -50 -31 -50 -10 0 -19 -6 -19 -12 0 -9 -3 -8 -10 2 -7 12
-12 12 -34 0 -32 -17 -44 -7 -21 16 16 16 16 18 -1 27 -12 7 -25 5 -45 -7 -26
-15 -28 -15 -34 3 -4 12 -12 18 -21 14 -19 -7 -18 -33 1 -33 8 0 15 -7 15 -15
0 -22 -31 -18 -37 5 -3 11 -13 20 -22 20 -14 1 -14 2 2 14 22 17 22 26 -3 26
-11 0 -20 -4 -20 -10 0 -5 -8 -10 -18 -10 -10 0 -26 -10 -36 -21 -15 -18 -15
-23 -5 -30 9 -5 10 -12 4 -18 -7 -7 -18 -2 -34 15 -17 17 -19 24 -8 24 26 0
29 30 5 51 -28 22 -38 24 -38 4 0 -8 9 -15 20 -15 28 0 25 -13 -7 -27 -39 -19
-57 -17 -48 5 4 9 10 26 13 37 3 11 10 23 16 27 6 4 7 10 3 14 -4 4 -21 -2
-37 -14 -29 -22 -77 -31 -65 -12 3 6 1 10 -5 10 -7 0 -9 8 -5 21 5 15 4 19 -4
15 -33 -21 15 -91 57 -83 25 5 24 5 16 -17 -3 -9 -15 -16 -26 -16 -10 0 -16 5
-13 10 3 6 -3 10 -14 10 -12 0 -21 5 -21 10 0 6 -9 10 -19 10 -26 0 -36 17
-20 36 9 11 9 18 1 26 -7 7 -12 22 -12 35 0 13 -4 23 -10 23 -14 0 -13 -26 3
-51 10 -17 10 -23 0 -26 -7 -3 -13 -11 -13 -19 0 -8 -9 -14 -19 -14 -29 0 -35
18 -9 22 13 2 24 11 27 23 3 20 3 20 -19 0 -16 -14 -34 -19 -67 -18 -49 2 -72
21 -73 61 0 22 -25 41 -37 29 -9 -9 18 -68 28 -61 5 3 9 2 9 -3 0 -4 3 -17 6
-29 5 -18 0 -20 -42 -23 -26 -1 -51 -4 -55 -6 -9 -6 -69 24 -69 35 0 4 -13 6
-30 4 -24 -4 -29 -2 -24 10 4 11 1 16 -10 16 -9 0 -16 -8 -17 -17 0 -13 -3
-11 -11 7 -6 14 -10 29 -9 33 1 5 -6 7 -16 5 -13 -3 -17 -12 -16 -31 2 -30
-11 -36 -21 -10 -6 15 -8 15 -16 3 -11 -16 -10 -18 -13 40 -1 14 3 28 8 33 14
10 -15 28 -37 23 -10 -2 -18 0 -18 6 0 5 -4 6 -10 3 -5 -3 -10 -2 -10 4 0 16
38 23 60 11 12 -6 25 -23 31 -37 8 -22 14 -25 39 -19 24 4 30 2 31 -12 0 -9 3
-12 5 -5 4 9 15 6 40 -7 29 -17 34 -17 34 -4 0 8 -4 13 -9 10 -5 -3 -11 1 -15
9 -3 8 -12 15 -21 15 -9 0 -27 7 -40 16 -18 12 -22 20 -16 33 5 9 7 28 5 43
-5 51 22 36 30 -16 0 -5 10 -12 21 -16 18 -6 18 -7 1 -17 -14 -7 -15 -12 -6
-18 6 -4 17 -2 23 4 6 6 22 11 36 11 25 0 22 12 -5 16 -29 4 -43 13 -54 35 -8
15 -9 19 -1 15 6 -4 11 0 11 8 0 9 4 16 9 16 5 0 8 -8 7 -17 -1 -12 8 -18 27
-19 18 -2 27 2 27 12 0 8 5 14 10 14 6 0 10 -9 10 -20 0 -11 5 -20 11 -20 6 0
8 9 4 20 -4 12 -2 20 5 20 7 0 10 7 7 15 -4 8 -3 17 2 19 12 8 51 -23 51 -40
0 -16 16 -19 25 -4 3 6 -1 13 -9 16 -21 8 -20 24 1 24 9 0 27 10 40 22 13 12
26 18 30 14 5 -4 -1 -14 -11 -22 -23 -16 -23 -15 28 -43 l38 -22 -7 28 c-8 35
-14 41 -24 24 -6 -9 -11 -10 -15 -3 -13 21 28 31 69 16 22 -7 50 -14 63 -14
12 0 22 -6 22 -14 0 -8 5 -18 11 -22 8 -4 9 3 4 24 -7 35 10 53 19 20 4 -18 8
-20 18 -10 6 6 27 12 44 12 26 0 33 5 36 22 3 19 5 20 18 7 8 -9 20 -14 27
-12 6 2 13 -4 16 -14 4 -16 6 -15 12 5 4 12 11 22 16 22 5 0 9 -10 9 -22 1
-21 2 -22 14 -5 13 17 42 25 32 8 -4 -5 -3 -17 0 -26 5 -12 9 -13 14 -4 4 6 1
28 -7 48 l-15 36 25 -24 c16 -14 23 -29 20 -39 -4 -10 -2 -13 5 -8 7 4 12 15
12 24 0 15 2 15 11 2 8 -12 12 -12 16 -2 4 10 8 10 19 1 11 -9 20 -9 37 -1 12
6 38 13 57 15 19 2 44 8 55 12 16 7 18 6 8 -6 -19 -20 -16 -29 12 -29 14 0 25
-5 25 -11 0 -5 4 -8 9 -5 4 3 7 17 6 31 -3 22 -1 24 17 14 18 -9 19 -8 13 10
-5 15 -2 21 9 21 9 0 16 -5 16 -10 0 -17 44 -57 57 -53 7 3 10 10 7 17 -7 18
22 40 42 32 9 -4 23 -1 30 5 11 9 14 8 14 -5 0 -9 7 -16 15 -16 8 0 15 -4 15
-10 0 -9 -14 -14 -32 -11 -5 0 -8 -3 -8 -8 0 -5 11 -8 25 -8 19 0 25 5 25 21
0 11 5 28 10 36 7 11 10 7 10 -17 0 -34 14 -44 24 -18 7 19 35 19 42 1 8 -20
115 -17 122 3 4 11 -5 12 -42 7 -25 -4 -46 -5 -46 -2 0 2 -3 13 -7 23 -5 15
-4 16 8 7 18 -15 70 -15 87 -1 9 7 18 4 33 -12 12 -12 28 -20 36 -17 8 3 19 6
24 6 6 0 8 4 5 9 -4 5 2 8 11 6 10 -2 35 -4 56 -4 31 -1 38 -4 35 -18 -2 -10
-9 -17 -15 -16 -6 1 -17 -4 -23 -12 -11 -13 -8 -15 19 -15 17 0 31 5 31 11 0
6 7 17 16 26 8 9 13 22 10 29 -8 20 -1 17 28 -10 15 -13 26 -31 26 -40 0 -9 5
-16 10 -16 6 0 10 17 10 37 l0 37 20 -22 c11 -12 20 -26 20 -33 0 -6 7 -8 16
-5 8 3 23 2 32 -3 15 -8 17 -4 13 35 -2 29 1 44 9 44 6 0 9 -4 5 -9z m-5435
-1281 c1169 -32 4572 -60 7329 -60 965 0 1756 -2 1759 -5 3 -3 -222 -5 -499
-5 -608 -1 -782 -5 -787 -19 -2 -6 -28 -11 -57 -11 -62 0 -87 -7 -79 -24 3 -6
-1 -3 -9 7 -18 21 -46 22 -53 2 -5 -12 -23 -15 -93 -13 -153 3 -292 -2 -287
-11 8 -13 -41 -20 -53 -8 -7 7 -27 7 -63 -1 -29 -6 -116 -14 -193 -18 -77 -3
-167 -7 -200 -9 -33 -3 -109 -7 -170 -10 -60 -3 -114 -10 -118 -14 -4 -4 -29
-4 -55 0 -26 4 -52 3 -59 -2 -7 -7 -12 -6 -15 2 -3 8 -9 9 -18 4 -15 -9 -94
-17 -145 -14 -48 3 -66 2 -140 -4 -90 -9 -409 -19 -597 -21 -81 0 -144 -4
-141 -9 3 -5 -5 -4 -17 3 -17 9 -29 9 -48 1 -15 -7 -71 -12 -136 -11 -196 2
-227 1 -221 -10 7 -12 -58 -14 -69 -3 -4 4 -31 9 -59 10 -29 1 -63 4 -77 7
-14 4 -19 4 -12 0 21 -10 13 -24 -12 -22 -14 1 -23 5 -21 9 2 3 -26 5 -63 4
-37 -2 -67 -4 -67 -5 0 -2 -105 -5 -280 -10 -27 0 -59 1 -70 3 -11 3 -26 0
-32 -5 -7 -6 -35 -7 -65 -3 -29 3 -75 8 -103 10 -45 3 -47 3 -15 -5 22 -6 -40
-7 -165 -4 -273 6 -676 6 -682 0 -2 -2 96 -5 219 -5 123 -1 266 -4 318 -7 52
-3 1450 -9 3105 -14 l3010 -7 -3285 2 c-3080 3 -4087 10 -5355 35 -542 10
-1568 38 -1620 44 -71 7 201 5 445 -3 391 -14 1708 -38 2245 -41 121 -1 230
-2 242 -3 12 -1 22 3 22 8 0 6 -32 9 -82 8 -60 -2 -78 0 -67 8 12 9 11 10 -4
5 -24 -8 -303 -9 -315 -2 -5 4 -21 2 -35 -4 -19 -7 -46 -5 -94 4 -36 8 -69 11
-72 8 -5 -8 -14 -8 -325 -2 -170 3 -193 5 -120 10 77 5 67 6 -78 8 -93 1 -166
5 -164 10 3 4 -56 7 -131 7 -76 1 -168 4 -207 9 -38 4 -106 9 -150 10 -86 3
-123 10 -138 25 -6 6 -16 5 -28 -2 -15 -9 -24 -9 -39 1 -17 10 -21 10 -26 -3
-4 -8 -14 -15 -23 -15 -14 0 -14 2 -1 10 12 8 11 10 -7 10 -12 0 -23 6 -26 13
-3 9 -7 9 -20 -1 -10 -9 -25 -11 -39 -6 -29 9 -66 13 -143 16 -33 2 -62 6 -65
9 -3 4 -32 9 -65 13 -124 13 -160 18 -165 24 -3 4 -34 9 -70 11 -36 2 -67 7
-70 11 -3 4 -43 10 -90 14 -99 7 -132 15 -124 28 3 5 45 9 92 8 48 -1 132 0
187 1 99 2 98 3 -45 9 -226 11 -634 11 -755 0 -98 -9 -233 -31 -290 -47 -11
-3 -17 -2 -13 2 13 13 150 43 251 54 56 6 116 13 132 15 39 6 601 -2 1035 -14z
m-1465 -77 c-22 -9 -53 -25 -70 -35 l-30 -19 29 7 c19 5 31 2 37 -7 8 -12 10
-12 18 0 7 10 29 13 88 12 70 -2 80 -5 98 -27 11 -13 34 -29 50 -33 27 -8 25
-9 -20 -10 -27 0 -117 6 -200 14 -82 8 -153 15 -157 15 -38 0 43 53 132 86 51
18 72 16 25 -3z m16747 -27 c-3 -5 0 -6 6 -2 12 7 92 -31 92 -45 0 -5 -3 -9
-7 -9 -5 0 -75 -7 -158 -15 -169 -16 -221 -18 -165 -5 63 15 128 48 134 68 6
17 15 20 55 18 27 0 47 -5 43 -10z"/>
<path d="M14527 8632 c-8 -10 -7 -22 4 -45 12 -26 13 -93 10 -384 l-4 -353
100 0 100 0 7 77 c3 42 6 98 6 125 l0 49 126 -3 126 -3 57 -113 c32 -62 62
-117 68 -123 5 -5 56 -8 116 -7 l107 3 -79 140 -79 140 48 48 c71 71 85 105
85 214 0 86 -2 94 -30 135 -21 28 -50 53 -90 73 l-59 30 -304 5 c-245 4 -306
2 -315 -8z m525 -152 c49 -14 68 -43 68 -103 0 -58 -22 -104 -56 -117 -14 -6
-90 -10 -170 -10 l-144 0 0 120 0 120 133 0 c72 0 149 -5 169 -10z"/>
<path d="M15556 8631 c-3 -4 -6 -181 -6 -392 l-1 -384 158 -6 c87 -4 238 -7
336 -8 l177 -1 0 75 0 75 -232 2 -233 3 -3 88 -3 87 209 0 210 0 4 68 c3 37 3
70 1 75 -2 4 -96 7 -209 7 l-204 0 0 85 0 85 230 0 230 0 0 75 0 75 -329 0
c-182 0 -332 -4 -335 -9z"/>
<path d="M20034 8621 c-2 -2 -4 -37 -4 -78 l0 -73 150 0 150 0 2 -322 3 -323
100 0 100 0 3 323 2 322 151 0 150 0 -3 73 -3 72 -398 5 c-219 3 -401 3 -403
1z"/>
<path d="M11569 19957 c-24 -22 -24 -22 -50 -4 -25 18 -28 18 -190 -22 -277
-67 -470 -145 -600 -242 -60 -44 -180 -159 -210 -201 -11 -14 22 15 74 66 126
127 244 201 426 270 118 45 420 126 469 126 37 0 35 -31 -4 -71 -31 -32 -34
-40 -25 -58 13 -24 31 -28 31 -7 0 8 19 38 43 68 38 48 70 98 63 98 -2 0 -14
-10 -27 -23z"/>
<path d="M24290 19550 c-21 -7 -22 -8 -5 -9 18 -1 18 -3 3 -11 -11 -7 -26 -7
-43 0 -14 5 -43 10 -63 9 -33 -1 -34 -2 -12 -9 21 -7 16 -8 -25 -11 -27 -1
-63 -2 -80 -1 -28 2 -28 1 -10 -10 11 -7 29 -13 40 -15 16 -1 194 -39 390 -83
22 -5 53 -13 69 -20 16 -6 32 -8 35 -4 3 4 0 9 -6 11 -7 3 -13 13 -13 23 0 20
-27 46 -37 36 -3 -3 -1 -6 5 -6 6 0 10 -9 9 -20 -1 -15 -6 -18 -27 -13 -47 11
-57 24 -15 18 33 -4 30 -1 -24 17 -50 17 -67 19 -82 10 -26 -17 -33 -15 -15 3
17 17 47 19 94 6 17 -5 32 -6 32 -2 0 8 -132 42 -167 43 -13 0 -21 4 -18 8 3
5 1 11 -5 15 -6 4 -8 11 -5 16 4 5 5 9 3 8 -2 -1 -14 -5 -28 -9z"/>
</g>
</svg>
